PathFileType	4	(X/Y/Z)	Patient4_TMGait_0pt8_01_right_25.trc.trc
DataRate	CameraRate	NumFrames	NumMarkers	Units	OrigDataRate	OrigDataStartFrame	OrigNumFrames
89.743589743590	89.743589743590	4	33	mm	89.743589743590	18	       141
Frame#	Time	Sacral			L.Shoulder			Chest			R.Shoulder			Neck			R.ASIS			L.ASIS			R.Thigh.Superior			R.Thigh.Lateral			R.Thigh.Inferior			R.Patella			L.Thigh.Superior			L.Thigh.Lateral			L.Thigh.Inferior			L.Patella			L.Shank.Superior			L.Shank.Lateral			L.Shank.Inferior			R.Shank.Superior			R.Shank.Lateral			R.Shank.Inferior			R.Heel			R.Midfoot.Superior			R.Midfoot.Lateral			R.Toe			L.Heel			L.Midfoot.Lateral			L.Midfoot.Superior			L.Toe			L.Elbow			L.Wrist			R.Elbow			R.Wrist			
		X1	Y1	Z1	X2	Y2	Z2	X3	Y3	Z3	X4	Y4	Z4	X5	Y5	Z5	X6	Y6	Z6	X7	Y7	Z7	X8	Y8	Z8	X9	Y9	Z9	X10	Y10	Z10	X11	Y11	Z11	X12	Y12	Z12	X13	Y13	Z13	X14	Y14	Z14	X15	Y15	Z15	X16	Y16	Z16	X17	Y17	Z17	X18	Y18	Z18	X19	Y19	Z19	X20	Y20	Z20	X21	Y21	Z21	X22	Y22	Z22	X23	Y23	Z23	X24	Y24	Z24	X25	Y25	Z25	X26	Y26	Z26	X27	Y27	Z27	X28	Y28	Z28	X29	Y29	Z29	X30	Y30	Z30	X31	Y31	Z31	X32	Y32	Z32	X33	Y33	Z33	

18	28.139428571429	885.324597561029	1001.384051973536	424.170543250557	1079.777652954642	1433.145642766394	265.160147025572	1166.714224909312	1360.266221339618	433.333155811896	1066.611137298703	1429.068102854953	600.545915091785	1044.203421393375	1488.567611048732	419.411311824952	1105.379906596834	936.264283957802	555.838911471104	1105.923878355055	957.574686741588	280.413587012766	1179.832700983833	768.616810532165	527.401900634478	1142.335022511516	644.694095596009	602.649019849909	1233.460150746245	610.648632302442	524.002737615629	1270.224639474746	529.784215030106	542.035232301926	1099.882429034653	727.417625642634	306.494031666196	975.499255286683	636.043820487390	251.422218904778	1035.261924874057	541.052541349142	313.864688080969	1019.087947041524	476.025448481988	324.712823114025	985.365525649823	411.506593552710	321.080229930712	879.814635788065	305.945116981303	280.266462986832	924.120709345946	192.206203652698	354.012623430227	1258.770745338325	442.127929433021	551.776534397863	1211.020680815472	324.669303561818	612.487737136082	1287.398118686732	243.506711155977	562.827587144067	1208.369907597546	50.559150343314	530.581258457827	1365.422027516114	133.784755590144	575.432445172018	1289.760225577919	53.915877342325	607.332325168993	1490.074407761270	103.762892817919	607.008682163319	788.732250872812	42.493783686865	413.343600127579	857.477938692913	36.355536677223	329.070946462906	943.262697048436	96.313230058149	349.037026569819	1068.559609385465	42.188185145206	314.289116203952	1190.788836954418	1132.705681900355	95.271909973525	1443.568115725298	1082.979787298462	123.138209951354	904.708229922450	1120.681674554417	690.449061880370	843.800919397835	871.830990422879	720.974201753332	
19	28.150571428571	886.595256165059	999.575967093724	425.693382450389	1080.070483930446	1431.474819590378	266.407301258710	1167.001810589837	1358.934431300683	434.693750766311	1066.589190677373	1427.925791056901	601.635717444027	1044.311201064464	1486.913423270060	420.497033810513	1106.579793575770	934.156925631678	557.385635534259	1107.003814319294	956.195424344420	281.669529359912	1179.997523241747	765.789455751739	528.684848214965	1141.166759880605	641.342677087270	602.727862476121	1232.629703708514	607.626429358352	524.465558223733	1268.468517656401	527.150245241688	541.447642384376	1098.754280338382	725.729569785221	307.436450065773	973.387730313875	635.519118900165	252.009492907788	1031.999212448140	539.878798803652	314.595746807028	1015.147634424827	474.669892529844	325.271537152106	980.572183973340	410.579350292388	321.447885068719	873.704042551998	306.363217353863	280.435102028388	916.497967692507	191.976856343554	353.987322381206	1257.919808210972	439.344912499280	550.913907926767	1210.698168951325	321.084802056584	610.265577589093	1288.338279495221	241.003025375913	560.759101538545	1211.598778093582	47.538264904074	526.704398301131	1367.118261458957	132.078744452428	573.003563337605	1292.001219109204	51.881243110771	604.419753345790	1491.904336991043	103.475899927898	606.331475013942	779.782304628737	43.083704326812	413.059877272904	848.602209556769	36.492814492970	328.932385458095	934.470426961248	96.393478285444	348.860117905721	1059.687397266232	41.901808693123	314.217949320320	1190.427892715054	1131.591627573009	95.687445736166	1444.187079184868	1092.233262319895	125.804552830368	900.026150723188	1123.218866601964	691.957343608008	835.444901161047	875.274346411465	721.957943649248	
20	28.161714285714	888.045786709386	997.676698153479	427.533472886653	1080.197337600862	1429.758974922210	267.744326009404	1167.276284112862	1357.667481435617	436.112420055761	1066.579347592447	1426.782015262113	602.837439353026	1044.368561661054	1485.233815735614	421.707328967445	1108.065101109241	932.001548937020	558.997831983137	1108.208466196816	954.797133964366	282.991122233963	1180.875728381441	763.128081335257	529.919599747703	1140.603720412593	638.080068944959	602.549207638414	1232.387713280169	604.757945510935	524.706867934919	1267.124885629449	524.281952418156	540.578536374862	1098.006240335085	724.061564222050	308.422797756919	971.731117762016	634.923507095879	252.736795605912	1029.329216636857	538.644586211812	315.378599323670	1011.840093569487	473.174470766640	325.899724916162	976.300101878572	409.503181172962	321.892278324807	867.968836743298	306.812582417502	280.681199478078	909.049047592051	191.709824339448	353.977579330718	1256.902932729436	436.134425835666	549.792949975153	1209.433943270004	317.525609720521	607.972767905144	1287.471814568606	237.927383190424	558.511767954154	1211.241490237446	45.056011546874	522.977919993453	1365.993851275229	129.307782642188	570.376484132724	1290.763448518401	49.677067654347	601.566738723328	1490.649904489352	100.924985617510	605.316773782224	770.833577668150	43.785434280253	412.739947625919	839.740782059636	36.655366764073	328.765875433147	925.725560691565	96.477611990028	348.648296362635	1050.852405065548	41.585010661749	314.131864022095	1189.622106114921	1130.166096365422	96.358366708354	1443.857381393025	1100.445716801478	128.502691070423	896.208073793151	1125.302673774812	693.587790006298	828.572888902190	878.100916532519	723.097964738425	
21	28.172857142857	889.640844556868	995.749455052940	429.670585391901	1080.169064346274	1428.038171809675	269.181924674551	1167.559813746249	1356.488568715557	437.590919267346	1066.625979967532	1425.648832017169	604.173572947744	1044.403928005121	1483.571739114310	423.060030694934	1109.824656501298	929.853339710260	560.647932121872	1109.523779075287	953.419061052102	284.379249000854	1182.443729209866	760.648948572327	531.068052940699	1140.602699987961	634.988046611771	602.152300170120	1232.672333392635	602.084873992380	524.734455416978	1266.160699852021	521.257348764776	539.451055701488	1097.659306908595	722.448734470552	309.412490710763	970.545894005860	634.265816016732	253.612308630588	1027.314519835486	537.358122222922	316.190319953587	1009.247685797583	471.530896818445	326.559028150383	972.592619348922	408.280657205384	322.399769249279	862.635714923128	307.323636089698	281.014711628451	901.804999937642	191.426677011943	353.971159189609	1255.778641790324	432.618239296667	548.484381743436	1207.448084735604	314.058829283502	605.767951582820	1285.094464966273	234.391740683032	556.207386015144	1207.731246236391	43.108668255632	519.609195164700	1362.502376628055	125.600247692601	567.676366953381	1286.553903371092	47.357391854208	598.923965097981	1486.821249305693	96.318050114030	603.967779644434	761.889478395867	44.645518512520	412.376990687022	830.892768141793	36.856149775366	328.567024662724	917.051339893653	96.563167247759	348.382796122192	1042.053864889735	41.245639249003	314.032482711981	1188.340045427514	1128.439584834243	97.291403428426	1442.657872485469	1107.541503898452	131.209554799831	893.347999569390	1126.833970343616	695.334759010895	823.173882600091	880.250595019644	724.432084701165	
